<?xml version="1.0" encoding="iso-8859-1"?>
<!-- Uploaded to: SVG Repo, www.svgrepo.com, Generator: SVG Repo Mixer Tools -->
<svg fill="#fff" height="800px" width="800px" version="1.1" id="Layer_1" xmlns="http://www.w3.org/2000/svg" xmlns:xlink="http://www.w3.org/1999/xlink" 
	 viewBox="0 0 512.002 512.002" xml:space="preserve">
<g>
	<g>
		<path d="M22.63,148.25C10.545,174.323,2.706,202.744,0,232.629l46.973,0.002c2.379-21.427,7.99-41.892,16.334-60.897L22.63,148.25
			z"/>
	</g>
</g>
<g>
	<g>
		<path d="M232.627,0.001c-29.883,2.706-58.306,10.545-84.378,22.63l23.482,40.677c19.006-8.343,39.469-13.955,60.897-16.334
			L232.627,0.001z"/>
	</g>
</g>
<g>
	<g>
		<path d="M171.733,448.694l-23.484,40.675c26.073,12.087,54.496,19.926,84.382,22.632v-46.973
			C211.202,462.649,190.738,457.038,171.733,448.694z"/>
	</g>
</g>
<g>
	<g>
		<path d="M86.735,380.709l-40.68,23.487c16.929,23.912,37.835,44.818,61.747,61.747l23.487-40.68
			C114.31,412.721,99.279,397.689,86.735,380.709z"/>
	</g>
</g>
<g>
	<g>
		<path d="M107.803,46.059c-23.911,16.928-44.816,37.833-61.746,61.744l40.678,23.489c12.545-16.979,27.575-32.011,44.556-44.555
			L107.803,46.059z"/>
	</g>
</g>
<g>
	<g>
		<path d="M489.368,148.246l-40.675,23.484c8.343,19.006,13.954,39.469,16.334,60.897L512,232.626
			C509.294,202.741,501.455,174.32,489.368,148.246z"/>
	</g>
</g>
<g>
	<g>
		<path d="M425.265,380.709c-12.544,16.979-27.574,32.011-44.555,44.555l23.487,40.68c23.912-16.929,44.818-37.835,61.747-61.747
			L425.265,380.709z"/>
	</g>
</g>
<g>
	<g>
		<path d="M404.196,46.057l-23.487,40.68c16.978,12.541,32.01,27.572,44.553,44.552l40.68-23.487
			C449.012,83.891,428.107,62.985,404.196,46.057z"/>
	</g>
</g>
<g>
	<g>
		<path d="M340.267,448.694c-19.005,8.345-39.469,13.955-60.897,16.334v46.973c29.886-2.706,58.307-10.545,84.381-22.632
			L340.267,448.694z"/>
	</g>
</g>
<g>
	<g>
		<path d="M465.029,279.368c-2.379,21.427-7.99,41.891-16.333,60.897l40.675,23.484c12.086-26.073,19.924-54.495,22.63-84.381
			H465.029z"/>
	</g>
</g>
<g>
	<g>
		<path d="M279.369,0.001l-0.002,46.973c21.427,2.379,41.891,7.99,60.897,16.333l23.482-40.677
			C337.675,10.544,309.253,2.707,279.369,0.001z"/>
	</g>
</g>
<g>
	<g>
		<path d="M46.973,279.368L0,279.37c2.706,29.884,10.543,58.307,22.63,84.379l40.677-23.482
			C54.962,321.26,49.352,300.797,46.973,279.368z"/>
	</g>
</g>
<g>
	<g>
		<path d="M256,92.409c-90.35,0-163.592,73.243-163.592,163.592S165.65,419.593,256,419.593s163.592-73.243,163.592-163.592
			S346.35,92.409,256,92.409z M370.501,279.371h-67.76v46.741h46.677c-21.34,28.362-55.271,46.741-93.417,46.741
			c-56.43,0-103.643-40.209-114.5-93.481h67.76V232.63h-67.76c10.856-53.272,58.071-93.481,114.501-93.481
			c38.147,0,72.077,18.378,93.417,46.741H271.58v46.741h98.92c1.539,7.553,2.351,15.368,2.351,23.37S372.04,271.818,370.501,279.371
			z"/>
	</g>
</g>
</svg>