<svg width="504" height="114" viewBox="0 0 504 114" fill="none" xmlns="http://www.w3.org/2000/svg">
<path d="M74.72 105.088C71.7333 107.648 67.552 109.611 62.176 110.976C56.8 112.427 49.888 113.152 41.44 113.152C33.0773 113.152 26.208 112.256 20.832 110.464C15.5413 108.757 11.36 106.453 8.288 103.552C5.30133 100.651 3.21067 97.3227 2.016 93.568C0.906667 89.8133 0.352 85.9307 0.352 81.92V42.112C0.352 38.1867 0.906667 34.56 2.016 31.232C3.12533 27.8187 5.13067 24.9173 8.032 22.528L24.672 8.70399C27.6587 6.144 31.7973 4.18133 37.088 2.81599C42.464 1.36533 49.4187 0.639992 57.952 0.639992C66.3147 0.639992 73.1413 1.32266 78.432 2.688C83.808 4.05333 87.9893 5.97333 90.976 8.448C94.048 10.8373 96.1387 13.7387 97.248 17.152C98.3573 20.48 98.912 24.1493 98.912 28.16V71.808C98.912 75.7333 98.3573 79.36 97.248 82.688C96.1387 86.016 94.1333 88.8747 91.232 91.264L74.72 105.088ZM97.632 71.808V28.16C97.632 24.2347 97.0347 20.6933 95.84 17.536C94.7307 14.2933 92.6827 11.52 89.696 9.216C86.7947 6.91199 82.7413 5.12 77.536 3.84C72.416 2.56 65.888 1.92 57.952 1.92C50.016 1.92 43.4453 2.56 38.24 3.84C33.0347 5.12 28.9387 6.91199 25.952 9.216C23.0507 11.52 21.0027 14.2933 19.808 17.536C18.6987 20.6933 18.144 24.2347 18.144 28.16V71.808C18.144 75.7333 18.6987 79.3173 19.808 82.56C21.0027 85.7173 23.0507 88.448 25.952 90.752C28.9387 92.9707 33.0347 94.72 38.24 96C43.4453 97.28 50.016 97.92 57.952 97.92C65.888 97.92 72.416 97.28 77.536 96C82.7413 94.72 86.7947 92.9707 89.696 90.752C92.6827 88.448 94.7307 85.7173 95.84 82.56C97.0347 79.3173 97.632 75.7333 97.632 71.808ZM83.68 68.864C83.68 73.984 81.8453 78.1653 78.176 81.408C74.5067 84.5653 67.68 86.144 57.696 86.144C47.712 86.144 40.928 84.5653 37.344 81.408C33.76 78.1653 31.968 73.984 31.968 68.864V31.104C31.968 25.984 33.76 21.8453 37.344 18.688C40.928 15.4453 47.712 13.824 57.696 13.824C67.68 13.824 74.5067 15.4453 78.176 18.688C81.8453 21.8453 83.68 25.984 83.68 31.104V68.864ZM33.248 68.864C33.248 73.6427 34.9547 77.5253 38.368 80.512C41.7813 83.4133 48.224 84.864 57.696 84.864C67.168 84.864 73.6533 83.4133 77.152 80.512C80.6507 77.5253 82.4 73.6427 82.4 68.864V31.104C82.4 26.3253 80.6507 22.4853 77.152 19.584C73.6533 16.5973 67.168 15.104 57.696 15.104C48.224 15.104 41.7813 16.5973 38.368 19.584C34.9547 22.4853 33.248 26.3253 33.248 31.104V68.864ZM47.2 67.2V32.768C47.2 31.1467 47.84 29.7813 49.12 28.672C50.4 27.4773 53.344 26.88 57.952 26.88C62.56 26.88 65.504 27.4773 66.784 28.672C68.064 29.7813 68.704 31.1467 68.704 32.768V67.2C68.704 68.9067 68.064 70.3573 66.784 71.552C65.504 72.6613 62.56 73.216 57.952 73.216C53.344 73.216 50.4 72.6613 49.12 71.552C47.84 70.3573 47.2 68.9067 47.2 67.2ZM48.48 67.2C48.48 68.0533 48.6507 68.8213 48.992 69.504C49.3333 70.1013 49.9733 70.6133 50.912 71.04V46.72C50.912 45.8667 50.7413 45.1413 50.4 44.544C50.0587 43.8613 49.4187 43.3493 48.48 43.008V67.2ZM169.685 16.64H141.781V53.632H169.685C174.976 53.632 178.517 52.352 180.309 49.792C182.101 47.232 182.997 43.6053 182.997 38.912V29.952C182.997 26.0267 181.888 22.8267 179.669 20.352C177.536 17.8773 174.208 16.64 169.685 16.64ZM155.605 26.88H165.205C167.424 26.88 168.917 27.4773 169.685 28.672C170.453 29.7813 170.837 31.1893 170.837 32.896V37.248C170.837 38.9547 170.453 40.4053 169.685 41.6C168.917 42.7093 167.424 43.264 165.205 43.264H155.605V26.88ZM141.781 84.48H140.501V15.36H169.685C174.634 15.36 178.304 16.768 180.693 19.584C183.082 22.3147 184.277 25.7707 184.277 29.952V38.784C184.277 42.7093 183.765 45.952 182.741 48.512C181.717 50.9867 179.669 52.6933 176.597 53.632H178.005C183.21 53.632 187.093 54.8267 189.653 57.216C192.213 59.52 193.493 62.8907 193.493 67.328V84.48H192.213V67.328C192.213 63.1467 191.061 60.032 188.757 57.984C186.453 55.8507 182.869 54.784 178.005 54.784H141.781V84.48ZM150.997 96C152.618 96 153.77 95.6587 154.453 94.976C155.221 94.208 155.605 93.0133 155.605 91.392V66.304H173.525C175.317 66.304 176.554 66.7733 177.237 67.712C178.005 68.5653 178.389 69.9307 178.389 71.808V91.392C178.389 93.0133 178.73 94.208 179.413 94.976C180.181 95.6587 181.376 96 182.997 96H202.837C204.458 96 205.61 95.6587 206.293 94.976C207.061 94.208 207.445 93.0133 207.445 91.392V64.256C207.445 58.88 205.994 54.5707 203.093 51.328C200.277 48.0853 196.565 46.208 191.957 45.696C194.602 44.5867 196.437 42.7947 197.461 40.32C198.57 37.76 199.125 34.688 199.125 31.104V25.216C199.125 18.9013 197.29 13.7813 193.621 9.856C190.037 5.84533 183.466 3.84 173.909 3.84H131.285C129.664 3.84 128.469 4.224 127.701 4.992C127.018 5.67466 126.677 6.82667 126.677 8.448V91.392C126.677 93.0133 127.018 94.208 127.701 94.976C128.469 95.6587 129.664 96 131.285 96H150.997ZM155.093 96.128L138.453 109.952C138.112 110.293 137.557 110.592 136.789 110.848C136.106 111.104 135.338 111.232 134.485 111.232H114.773C112.725 111.232 111.232 110.763 110.293 109.824C109.354 108.885 108.885 107.392 108.885 105.344V22.4C108.885 21.2907 109.013 20.352 109.269 19.584C109.61 18.816 110.08 18.176 110.677 17.664L127.189 3.712C127.616 3.37066 128.17 3.11466 128.853 2.94399C129.621 2.688 130.432 2.56 131.285 2.56H173.909C184.064 2.56 191.018 4.69333 194.773 8.96C198.528 13.1413 200.405 18.56 200.405 25.216V31.104C200.405 34.2613 200.021 37.0347 199.253 39.424C198.485 41.728 197.248 43.6053 195.541 45.056H195.413C199.424 46.1653 202.624 48.384 205.013 51.712C207.488 55.04 208.725 59.2213 208.725 64.256V91.392C208.725 92.5013 208.554 93.44 208.213 94.208C207.957 94.976 207.53 95.616 206.933 96.128L190.293 109.952C189.952 110.293 189.397 110.592 188.629 110.848C187.946 111.104 187.178 111.232 186.325 111.232H166.485C164.437 111.232 162.944 110.763 162.005 109.824C161.066 108.885 160.597 107.392 160.597 105.344V85.76C160.597 84.3947 160.341 83.3707 159.829 82.688C159.317 81.92 158.378 81.536 157.013 81.536H156.885V91.392C156.885 92.5013 156.714 93.44 156.373 94.208C156.117 94.976 155.69 95.616 155.093 96.128ZM222.648 111.232C220.6 111.232 219.107 110.763 218.168 109.824C217.229 108.885 216.76 107.392 216.76 105.344V22.4C216.76 21.2907 216.888 20.352 217.144 19.584C217.485 18.816 217.955 18.176 218.552 17.664L235.064 3.712C235.491 3.37066 236.045 3.11466 236.728 2.94399C237.496 2.688 238.307 2.56 239.16 2.56H279.992C288.867 2.56 295.395 4.30933 299.576 7.808C303.757 11.2213 305.848 16.4267 305.848 23.424V29.568C305.848 32.5547 305.421 35.1147 304.568 37.248C303.8 39.3813 302.605 41.088 300.984 42.368L300.6 42.624C305.208 43.648 308.664 45.8667 310.968 49.28C313.272 52.608 314.424 57.2587 314.424 63.232V75.008C314.424 78.848 313.869 82.176 312.76 84.992C311.651 87.7227 309.987 90.0267 307.768 91.904L291.256 105.856C289.123 107.648 286.435 108.971 283.192 109.824C279.949 110.763 276.152 111.232 271.8 111.232H222.648ZM288.312 96C296.76 96 302.989 94.2933 307 90.88C311.096 87.4667 313.144 82.176 313.144 75.008V63.232C313.144 57.0027 311.821 52.2667 309.176 49.024C306.531 45.7813 302.477 43.904 297.016 43.392C299.576 42.2827 301.453 40.6187 302.648 38.4C303.928 36.096 304.568 33.152 304.568 29.568V23.424C304.568 16.768 302.563 11.8613 298.552 8.70399C294.541 5.46133 288.355 3.84 279.992 3.84H239.16C237.539 3.84 236.344 4.224 235.576 4.992C234.893 5.67466 234.552 6.82667 234.552 8.448V91.392C234.552 93.0133 234.893 94.208 235.576 94.976C236.344 95.6587 237.539 96 239.16 96H288.312ZM283.192 84.48H248.76V15.36H274.744C278.243 15.36 281.101 15.744 283.32 16.512C285.539 17.1947 287.245 18.176 288.44 19.456C289.635 20.6507 290.445 22.0587 290.872 23.68C291.299 25.3013 291.512 27.0507 291.512 28.928V37.12C291.512 39.68 291.043 42.0267 290.104 44.16C289.251 46.2933 286.989 47.8293 283.32 48.768C286.819 48.768 289.677 49.152 291.896 49.92C294.115 50.6027 295.821 51.6267 297.016 52.992C298.211 54.272 298.979 55.808 299.32 57.6C299.747 59.392 299.96 61.3547 299.96 63.488V71.68C299.96 73.5573 299.747 75.3067 299.32 76.928C298.893 78.464 298.083 79.7867 296.888 80.896C295.779 82.0053 294.115 82.9013 291.896 83.584C289.677 84.1813 286.776 84.48 283.192 84.48ZM274.744 16.64H250.04V48.768H274.744C278.243 48.768 281.016 48.4693 283.064 47.872C285.112 47.1893 286.648 46.336 287.672 45.312C288.781 44.2027 289.464 42.9653 289.72 41.6C290.061 40.1493 290.232 38.656 290.232 37.12V28.928C290.232 25.5147 289.251 22.6133 287.288 20.224C285.325 17.8347 281.144 16.64 274.744 16.64ZM263.352 25.6H274.232C275.853 25.6 277.048 26.0267 277.816 26.88C278.669 27.7333 279.096 29.0133 279.096 30.72V34.304C279.096 36.0107 278.669 37.2907 277.816 38.144C277.048 38.9973 275.853 39.424 274.232 39.424H263.352V25.6ZM283.32 50.048H250.04V83.2H283.192C289.592 83.2 293.773 82.176 295.736 80.128C297.699 77.9947 298.68 75.1787 298.68 71.68V63.488C298.68 59.648 297.699 56.448 295.736 53.888C293.859 51.328 289.72 50.048 283.32 50.048ZM263.352 59.136H279.992C281.613 59.136 282.808 59.5627 283.576 60.416C284.429 61.184 284.856 62.4213 284.856 64.128V69.12C284.856 70.8267 284.429 72.1067 283.576 72.96C282.808 73.8133 281.613 74.24 279.992 74.24H263.352V59.136ZM380.753 111.232H326.225C324.177 111.232 322.684 110.763 321.745 109.824C320.806 108.885 320.337 107.392 320.337 105.344V90.112C320.337 89.0027 320.465 88.064 320.721 87.296C321.062 86.528 321.532 85.888 322.129 85.376L337.617 72.32V43.776H326.225C324.177 43.776 322.684 43.3067 321.745 42.368C320.806 41.4293 320.337 39.936 320.337 37.888V22.4C320.337 21.2907 320.465 20.352 320.721 19.584C321.062 18.816 321.532 18.176 322.129 17.664L338.641 3.712C339.068 3.37066 339.622 3.11466 340.305 2.94399C341.073 2.688 341.884 2.56 342.737 2.56H397.265C399.313 2.56 400.806 3.02933 401.745 3.96799C402.684 4.90666 403.153 6.4 403.153 8.448V23.936C403.153 25.0453 402.982 25.984 402.641 26.752C402.385 27.52 401.958 28.16 401.361 28.672L386.129 41.472V70.272H397.265C399.313 70.272 400.806 70.7413 401.745 71.68C402.684 72.6187 403.153 74.112 403.153 76.16V91.392C403.153 92.5013 402.982 93.44 402.641 94.208C402.385 94.976 401.958 95.616 401.361 96.128L384.721 109.952C384.38 110.293 383.825 110.592 383.057 110.848C382.374 111.104 381.606 111.232 380.753 111.232ZM342.737 96H397.265C398.886 96 400.038 95.6587 400.721 94.976C401.489 94.208 401.873 93.0133 401.873 91.392V76.16C401.873 74.5387 401.489 73.3867 400.721 72.704C400.038 71.936 398.886 71.552 397.265 71.552H384.849V28.544H397.265C398.886 28.544 400.038 28.2027 400.721 27.52C401.489 26.752 401.873 25.5573 401.873 23.936V8.448C401.873 6.82667 401.489 5.67466 400.721 4.992C400.038 4.224 398.886 3.84 397.265 3.84H342.737C341.116 3.84 339.921 4.224 339.153 4.992C338.47 5.67466 338.129 6.82667 338.129 8.448V23.936C338.129 25.5573 338.47 26.752 339.153 27.52C339.921 28.2027 341.116 28.544 342.737 28.544H355.409V71.552H342.737C341.116 71.552 339.921 71.936 339.153 72.704C338.47 73.3867 338.129 74.5387 338.129 76.16V91.392C338.129 93.0133 338.47 94.208 339.153 94.976C339.921 95.6587 341.116 96 342.737 96ZM390.353 84.48H349.649V83.2H369.489V16.64H349.649V15.36H390.353V16.64H370.769V83.2H390.353V84.48ZM457.435 111.232H436.699C434.651 111.232 433.158 110.763 432.219 109.824C431.28 108.885 430.811 107.392 430.811 105.344V43.776H413.275C411.227 43.776 409.734 43.3067 408.795 42.368C407.856 41.4293 407.387 39.936 407.387 37.888V22.4C407.387 21.2907 407.515 20.352 407.771 19.584C408.112 18.816 408.582 18.176 409.179 17.664L425.691 3.712C426.118 3.37066 426.672 3.11466 427.355 2.94399C428.123 2.688 428.934 2.56 429.787 2.56H497.371C499.419 2.56 500.912 3.02933 501.851 3.96799C502.79 4.90666 503.259 6.4 503.259 8.448V23.936C503.259 25.0453 503.088 25.984 502.747 26.752C502.491 27.52 502.064 28.16 501.467 28.672L484.827 42.496C484.486 42.8373 483.931 43.136 483.163 43.392C482.48 43.648 481.712 43.776 480.859 43.776H479.835V91.392C479.835 92.5013 479.664 93.44 479.323 94.208C479.067 94.976 478.64 95.616 478.043 96.128L461.403 109.952C461.062 110.293 460.507 110.592 459.739 110.848C459.056 111.104 458.288 111.232 457.435 111.232ZM473.947 96C475.568 96 476.72 95.6587 477.403 94.976C478.171 94.208 478.555 93.0133 478.555 91.392V28.544H497.371C498.992 28.544 500.144 28.2027 500.827 27.52C501.595 26.752 501.979 25.5573 501.979 23.936V8.448C501.979 6.82667 501.595 5.67466 500.827 4.992C500.144 4.224 498.992 3.84 497.371 3.84H429.787C428.166 3.84 426.971 4.224 426.203 4.992C425.52 5.67466 425.179 6.82667 425.179 8.448V23.936C425.179 25.5573 425.52 26.752 426.203 27.52C426.971 28.2027 428.166 28.544 429.787 28.544H448.603V91.392C448.603 93.0133 448.944 94.208 449.627 94.976C450.395 95.6587 451.59 96 453.211 96H473.947ZM462.939 84.48V16.64H436.699V15.36H490.459V16.64H464.219V84.48H462.939Z" fill="white"/>
</svg>
